<?xml version="1.0" encoding="UTF-8"?>
<svg version="1.1" xmlns="http://www.w3.org/2000/svg" width="318" height="158">
<path d="M0 0 C104.94 0 209.88 0 318 0 C318 52.14 318 104.28 318 158 C213.06 158 108.12 158 0 158 C0 105.86 0 53.72 0 0 Z " fill="#FEFEFE" transform="translate(0,0)"/>
<path d="M0 0 C2.640625 1.375 2.640625 1.375 5.25 3 C6.55710938 3.804375 6.55710938 3.804375 7.890625 4.625 C10 6 10 6 11 7 C11.08790975 9.29151417 11.10694038 11.58572524 11.09765625 13.87890625 C11.0962413 14.5655687 11.09482635 15.25223114 11.09336853 15.95970154 C11.08775479 18.16067801 11.07520007 20.36155409 11.0625 22.5625 C11.05748676 24.05143083 11.05292355 25.54036324 11.04882812 27.02929688 C11.03778093 30.68623075 11.02050713 34.34310558 11 38 C18.60401432 34.790352 18.60401432 34.790352 23.93896484 29.01904297 C24.08173011 26.91673428 23.95597823 25.02643386 23.6875 22.9375 C23.40679911 15.72488656 23.40679911 15.72488656 25.8828125 12.69921875 C28.21369491 11.1890168 30.43077347 10.04496272 33 9 C33.65355469 8.60554688 34.30710938 8.21109375 34.98046875 7.8046875 C38.61116472 6.35802721 41.53922672 7.84737246 45.11328125 9.03125 C48.73933059 10.69595641 51.2206259 12.11339696 54 15 C55.951662 20.36017904 55.773246 26.60691605 54 32 C51.42840662 35.1868826 48.77379956 36.54421308 45 38 C43.66214721 38.6575501 42.32718971 39.32118508 41 40 C41.24105469 41.05316406 41.48210937 42.10632813 41.73046875 43.19140625 C42.41698154 48.21918905 42.58257693 52.48883923 40 57 C32.31694819 63.59870417 22.29354116 68.11051261 13 72 C12.33476318 72.2872998 11.66952637 72.57459961 10.98413086 72.87060547 C7.74949934 73.08155105 5.73435558 71.48112445 2.9921875 69.8515625 C2.42549347 69.51957855 1.85879944 69.1875946 1.27493286 68.84555054 C-0.53211918 67.78351473 -2.32848071 66.70473838 -4.125 65.625 C-5.34176959 64.90510227 -6.55921092 64.1863386 -7.77734375 63.46875 C-10.00587018 62.15497779 -12.22908166 60.83355943 -14.44970703 59.50634766 C-15.94067975 58.62569462 -17.45118125 57.77440938 -19 57 C-19 40.5 -19 24 -19 7 C-5 -1 -5 -1 0 0 Z " fill="#FE140B" transform="translate(142,28)"/>
<path d="M0 0 C4.61580182 1.31880052 8.3759203 2.79942769 12 6 C12.5534942 8.83055745 12.71010733 10.79784706 12.5859375 13.609375 C12.57744781 14.33618469 12.56895813 15.06299438 12.56021118 15.81182861 C12.52670601 18.12608121 12.45144932 20.43680705 12.375 22.75 C12.34489589 24.32156413 12.31752083 25.89318308 12.29296875 27.46484375 C12.2269265 31.31124813 12.12343921 35.15502691 12 39 C12.94182129 39.31356445 13.88364258 39.62712891 14.85400391 39.95019531 C23.47384611 42.82659772 23.47384611 42.82659772 26 46 C26.69850769 50.7337329 26.46280349 55.2498364 26 60 C23.91382811 58.98468853 21.8312497 57.96282154 19.75 56.9375 C18.58984375 56.36902344 17.4296875 55.80054688 16.234375 55.21484375 C15.2767627 54.68395142 15.2767627 54.68395142 14.29980469 54.14233398 C11.91776895 52.88448308 11.91776895 52.88448308 8.86425781 52.01586914 C4.90730089 50.46135035 2.76930041 49.26200649 0 46 C-2.07198448 38.47748064 -1.11720001 30.26273034 -0.75 22.5625 C-0.68977579 20.37840085 -0.63502832 18.19414337 -0.5859375 16.00976562 C-0.45399939 10.66971274 -0.25355312 5.33558745 0 0 Z " fill="#FEFBFB" transform="translate(125,38)"/>
<path d="M0 0 C2.421875 1.0859375 2.421875 1.0859375 4.75 2.375 C5.52859375 2.79523437 6.3071875 3.21546875 7.109375 3.6484375 C9 5 9 5 10 8 C10.40822164 12.35759307 10.56819254 16.713235 10.6796875 21.08642578 C10.726358 22.52251603 10.79454733 23.95807659 10.88476562 25.39208984 C11.17432769 30.08234708 11.22281852 34.41377874 10 39 C6.76548048 42.38520396 3.36093389 44.34459809 -1 46 C-1.66 46 -2.32 46 -3 46 C-3 35.77 -3 25.54 -3 15 C-3.33 26.22 -3.66 37.44 -4 49 C-4.33 49 -4.66 49 -5 49 C-5 38.11 -5 27.22 -5 16 C-7.475 15.01 -7.475 15.01 -10 14 C-11.4457511 13.30866352 -12.88401747 12.60134705 -14.3125 11.875 C-15.35857422 11.34519531 -15.35857422 11.34519531 -16.42578125 10.8046875 C-16.94527344 10.53914063 -17.46476562 10.27359375 -18 10 C-18 8.68 -18 7.36 -18 6 C-15.9463858 4.79429093 -13.88444845 3.61093359 -11.8125 2.4375 C-11.23435547 2.09525391 -10.65621094 1.75300781 -10.06054688 1.40039062 C-6.2768296 -0.71592582 -4.11437304 -1.49798425 0 0 Z " fill="#FEF8F7" transform="translate(142,28)"/>
<path d="M0 0 C3.62604934 1.66470641 6.10734465 3.08214696 8.88671875 5.96875 C10.83708232 11.32536293 10.6670054 17.58058776 8.88671875 22.96875 C5.59834189 27.02969732 1.71888595 28.3580276 -3.11328125 29.96875 C-6.29379902 29.43866371 -9.18529378 28.2996534 -12.11328125 26.96875 C-12.80550781 26.73285156 -13.49773437 26.49695313 -14.2109375 26.25390625 C-16.8618212 25.08976156 -18.29986572 24.25312538 -20.11328125 21.96875 C-21.03710832 15.95727527 -21.05152 9.78346625 -19.11328125 3.96875 C-16.78515625 2.328125 -16.78515625 2.328125 -13.86328125 0.71875 C-12.909375 0.17734375 -11.95546875 -0.3640625 -10.97265625 -0.921875 C-6.65387202 -2.59746888 -4.26879185 -1.41400382 0 0 Z " fill="#FE2219" transform="translate(187.11328125,37.03125)"/>
<path d="M0 0 C0.66 0.66 1.32 1.32 2 2 C2.33 1.34 2.66 0.68 3 0 C4.98 0 6.96 0 9 0 C9 8.25 9 16.5 9 25 C7.02 25 5.04 25 3 25 C2.67 24.34 2.34 23.68 2 23 C1.484375 23.33 0.96875 23.66 0.4375 24 C-2.93843074 25.38499723 -5.37415116 25.37508781 -9 25 C-13.02347129 22.87439252 -15.32435063 21.21958978 -17 17 C-17.63529958 12.94745739 -17.90563196 8.8337176 -16.0546875 5.0859375 C-11.42573235 -0.82398637 -7.07947527 -1.60290006 0 0 Z " fill="#071219" transform="translate(117,110)"/>
<path d="M0 0 C0.99 0.66 1.98 1.32 3 2 C3.33 1.34 3.66 0.68 4 0 C5.65 0 7.3 0 9 0 C9 7.92 9 15.84 9 24 C7.35 24 5.7 24 4 24 C3.67 23.34 3.34 22.68 3 22 C2.319375 22.495 1.63875 22.99 0.9375 23.5 C-2.76618806 25.39124497 -4.88392445 25.57769481 -9 25 C-12.63178066 22.91048236 -15.82948544 20.09680095 -17 16 C-17.4583991 11.26320934 -17.47747465 8.97331371 -15.375 4.6875 C-10.68940024 -0.61462604 -6.84677449 -1.67939752 0 0 Z " fill="#07121A" transform="translate(164,110)"/>
<path d="M0 0 C2.64233769 2.19257809 4.46669809 3.93339618 6 7 C6 9.31 6 11.62 6 14 C-0.27 14 -6.54 14 -13 14 C-10.67748574 18.88495525 -10.67748574 18.88495525 -8 20 C-3.32818984 20.41527201 -0.82491487 19.69993991 3 17 C3.66 18.32 4.32 19.64 5 21 C0.78120884 24.34593782 -2.47182093 25.34941358 -7.93359375 25.2890625 C-11.3150794 24.81603804 -13.42666084 23.1444493 -16 21 C-18.97861692 16.53207462 -18.73309522 12.23639444 -18 7 C-16.35352092 3.54375466 -13.93422616 1.58073518 -10.6875 -0.4375 C-6.92092001 -1.22585395 -3.68304924 -1.17559955 0 0 Z " fill="#0A131B" transform="translate(221,110)"/>
<path d="M0 0 C1.3503378 11.23614413 1.3503378 11.23614413 -1.44140625 14.8828125 C-3.87521891 16.49919662 -6.36709071 17.72894034 -9 19 C-10.36899831 19.77382604 -11.73186815 20.55855217 -13.08984375 21.3515625 C-24.52247834 28 -24.52247834 28 -27 28 C-27 23.38 -27 18.76 -27 14 C-23.47840679 12.00222209 -19.95551218 10.00709084 -16.42871094 8.01855469 C-15.22895097 7.34105082 -14.03005184 6.66202019 -12.83203125 5.98144531 C-11.11163831 5.0044672 -9.38789591 4.03339468 -7.6640625 3.0625 C-6.62717285 2.47597656 -5.5902832 1.88945313 -4.52197266 1.28515625 C-2 0 -2 0 0 0 Z " fill="#FEF4F4" transform="translate(180,70)"/>
<path d="M0 0 C3.3053792 0.51920779 5.86964968 1.91053438 8.75 3.5625 C9.54921875 4.01753906 10.3484375 4.47257812 11.171875 4.94140625 C11.77515625 5.29074219 12.3784375 5.64007813 13 6 C6.39435197 12.92727838 -2.86174767 19.04611604 -12 22 C-16.8866147 21.91362884 -20.49215177 19.22460583 -24 16 C-24 15.34 -24 14.68 -24 14 C-23.30849854 13.61142822 -22.61699707 13.22285645 -21.90454102 12.82250977 C-18.78956569 11.07087689 -15.67601708 9.31672349 -12.5625 7.5625 C-11.47388672 6.95083984 -10.38527344 6.33917969 -9.26367188 5.70898438 C-8.22919922 5.12568359 -7.19472656 4.54238281 -6.12890625 3.94140625 C-5.17056885 3.40201416 -4.21223145 2.86262207 -3.22485352 2.30688477 C-1.10085689 1.18471061 -1.10085689 1.18471061 0 0 Z " fill="#FEF8F7" transform="translate(165,61)"/>
<path d="M0 0 C2.421875 1.0859375 2.421875 1.0859375 4.75 2.375 C5.52859375 2.79523437 6.3071875 3.21546875 7.109375 3.6484375 C9 5 9 5 10 8 C10.08397157 10.35680213 10.10728187 12.71594081 10.09765625 15.07421875 C10.0962413 15.7580513 10.09482635 16.44188385 10.09336853 17.1464386 C10.08777876 19.32683722 10.07522822 21.50713251 10.0625 23.6875 C10.05748367 25.16731622 10.052921 26.64713406 10.04882812 28.12695312 C10.03781271 31.75133557 10.02055512 35.3756577 10 39 C9.67 39 9.34 39 9 39 C8.505 25.14 8.505 25.14 8 11 C3.05 13.475 3.05 13.475 -2 16 C-2.33 15.67 -2.66 15.34 -3 15 C-3.33 26.22 -3.66 37.44 -4 49 C-4.33 49 -4.66 49 -5 49 C-5 38.11 -5 27.22 -5 16 C-7.475 15.01 -7.475 15.01 -10 14 C-11.4457511 13.30866352 -12.88401747 12.60134705 -14.3125 11.875 C-15.35857422 11.34519531 -15.35857422 11.34519531 -16.42578125 10.8046875 C-16.94527344 10.53914063 -17.46476562 10.27359375 -18 10 C-18 8.68 -18 7.36 -18 6 C-15.9463858 4.79429093 -13.88444845 3.61093359 -11.8125 2.4375 C-11.23435547 2.09525391 -10.65621094 1.75300781 -10.06054688 1.40039062 C-6.2768296 -0.71592582 -4.11437304 -1.49798425 0 0 Z " fill="#FE3B32" transform="translate(142,28)"/>
<path d="M0 0 C1.65 0 3.3 0 5 0 C5.79211929 1.89564426 6.58367576 3.79152371 7.375 5.6875 C8.03628906 7.27111328 8.03628906 7.27111328 8.7109375 8.88671875 C9.82757462 11.58356657 10.92291801 14.28716264 12 17 C15.92157305 8.66801997 15.92157305 8.66801997 19 0 C20.98 0 22.96 0 25 0 C19.234375 20.765625 19.234375 20.765625 16 24 C13.66702567 24.04092937 11.33294775 24.04241723 9 24 C0 7 0 7 0 0 Z " fill="#071119" transform="translate(177,110)"/>
<path d="M0 0 C1.65 0 3.3 0 5 0 C5 10.23 5 20.46 5 31 C8.96 31 12.92 31 17 31 C17 32.65 17 34.3 17 36 C11.39 36 5.78 36 0 36 C0 24.12 0 12.24 0 0 Z " fill="#030D13" transform="translate(81,98)"/>
<path d="M0 0 C3.375 1.0625 3.375 1.0625 5.3125 2.75 C6.72089562 5.81533164 6.85272045 7.71845685 6.375 11.0625 C4.8125 13.9375 4.8125 13.9375 2.375 16.0625 C-1.125 16.6875 -1.125 16.6875 -4.625 16.0625 C-7.5486459 13.5136805 -8.47409176 11.86734394 -9.1875 8.0625 C-8.16376258 2.6025671 -5.56370371 0.09592593 0 0 Z " fill="#F6F6F6" transform="translate(113.625,113.9375)"/>
<path d="M0 0 C2.375 1.5 2.375 1.5 4 4 C4.81753559 8.07099353 4.65416433 10.99359333 2.375 14.5 C-0.72140596 16.45562482 -2.39853135 16.60024477 -6 16 C-8.375 14.5 -8.375 14.5 -10 12 C-10.81753559 7.92900647 -10.65416433 5.00640667 -8.375 1.5 C-5.27859404 -0.45562482 -3.60146865 -0.60024477 0 0 Z " fill="#F8F9F9" transform="translate(163,114)"/>
<path d="M0 0 C1.65 0 3.3 0 5 0 C5 11.88 5 23.76 5 36 C3.35 36 1.7 36 0 36 C0 24.12 0 12.24 0 0 Z " fill="#000A10" transform="translate(232,98)"/>
<path d="M0 0 C4.95 0 9.9 0 15 0 C15 1.65 15 3.3 15 5 C11.7 5 8.4 5 5 5 C5 11.27 5 17.54 5 24 C3.35 24 1.7 24 0 24 C0 16.08 0 8.16 0 0 Z " fill="#000B12" transform="translate(131,110)"/>
<path d="M0 0 C3.42464953 1.71232476 6.71632853 3.52979712 10 5.5 C7.00464618 8.84097157 4.21110435 10.89978035 0 12.5 C-5.59261883 12.5 -8.75238127 9.81314261 -13 6.5 C-9.33192487 2.6546161 -5.53709411 -0.92284902 0 0 Z " fill="#FEF6F5" transform="translate(140,29.5)"/>
<path d="M0 0 C3.86875678 1.43953741 7.45210102 3.42292042 10.6875 6 C10.6875 6.66 10.6875 7.32 10.6875 8 C2.98446101 12.94706282 2.98446101 12.94706282 -1.375 13.125 C-5.37432025 11.59334543 -8.79354868 9.42039545 -12.3125 7 C-3.86422414 0 -3.86422414 0 0 0 Z " fill="#FEF7F7" transform="translate(181.3125,37)"/>
<path d="M0 0 C3.96 1.98 7.92 3.96 12 6 C12 10.62 12 15.24 12 20 C7.6214626 18.24858504 4.02927258 16.37016034 0 14 C0 9.38 0 4.76 0 0 Z " fill="#FEF3F2" transform="translate(168,46)"/>
<path d="M0 0 C0.67022323 4.50200454 0.96687145 8.52951908 0 13 C-3.24155644 16.25204691 -6.79826832 18.197385 -11 20 C-11.33 20 -11.66 20 -12 20 C-12.59135382 15.20346347 -12.89026554 10.76927966 -12 6 C-8.85855697 2.69920841 -4.69242015 0 0 0 Z " fill="#FEFAFA" transform="translate(194,46)"/>
<path d="M0 0 C0.33 0 0.66 0 1 0 C1 1.98 1 3.96 1 6 C0.1646875 6.0928125 0.1646875 6.0928125 -0.6875 6.1875 C-3.2716923 6.89341086 -3.2716923 6.89341086 -5.375 9.5625 C-8 12 -8 12 -11 12.625 C-14.9661411 11.79872061 -16.48622355 10.10525326 -19 7 C-19 6.34 -19 5.68 -19 5 C-12.73 5 -6.46 5 0 5 C0 3.35 0 1.7 0 0 Z " fill="#DDDEDF" transform="translate(227,119)"/>
<path d="M0 0 C0.33 0.99 0.66 1.98 1 3 C0.67 3.33 0.34 3.66 0 4 C1.38481328 4.87191947 2.78345246 5.72190384 4.1875 6.5625 C4.96480469 7.03816406 5.74210938 7.51382813 6.54296875 8.00390625 C10.44267656 9.58486888 13.14479049 8.28506984 17 7 C17 7.99 17 8.98 17 10 C16.35546875 10.18304688 15.7109375 10.36609375 15.046875 10.5546875 C12.62555056 11.90811895 12.62555056 11.90811895 12.390625 15.2578125 C12.32101563 17.17207031 12.32101563 17.17207031 12.25 19.125 C12.19328125 20.40632813 12.1365625 21.68765625 12.078125 23.0078125 C12.05234375 23.99523437 12.0265625 24.98265625 12 26 C11.67 26 11.34 26 11 26 C11 21.38 11 16.76 11 12 C9.35 11.67 7.7 11.34 6 11 C3.55032321 9.82017501 1.32911148 8.41573443 -1 7 C-1.33 10.96 -1.66 14.92 -2 19 C-2.33 19 -2.66 19 -3 19 C-3.02698422 16.56242587 -3.04683099 14.12515085 -3.0625 11.6875 C-3.07087891 10.99720703 -3.07925781 10.30691406 -3.08789062 9.59570312 C-3.10307906 6.4516975 -3.00193327 4.00579981 -2 1 C-1.34 0.67 -0.68 0.34 0 0 Z " fill="#FE433B" transform="translate(170,40)"/>
<path d="M0 0 C1.9375 1.3125 1.9375 1.3125 3 3 C3 3.99 3 4.98 3 6 C-1.62 6 -6.24 6 -11 6 C-8.32025931 -0.69935172 -6.89777982 -0.48405472 0 0 Z " fill="#F7F8F8" transform="translate(219,114)"/>
<path d="M0 0 C0.66 0.66 1.32 1.32 2 2 C-1.45434314 4.00695291 -4.9141063 6.00436779 -8.375 8 C-9.35984375 8.57234375 -10.3446875 9.1446875 -11.359375 9.734375 C-12.77089844 10.54648438 -12.77089844 10.54648438 -14.2109375 11.375 C-15.08024902 11.87773438 -15.94956055 12.38046875 -16.84521484 12.8984375 C-19 14 -19 14 -21 14 C-21 18.62 -21 23.24 -21 28 C-21.33 28 -21.66 28 -22 28 C-22.79898227 22.75539842 -23.12252425 18.22079676 -22 13 C-18.21539518 9.18098968 -13.85634153 7.20545264 -9 5 C-7.22041786 4.01565347 -5.44801258 3.01805999 -3.6875 2 C-2.46009069 1.33010335 -1.2316898 0.66199348 0 0 Z " fill="#FE1B0E" transform="translate(174,70)"/>
<path d="M0 0 C1.98 0 3.96 0 6 0 C6 8.25 6 16.5 6 25 C4.02 25 2.04 25 0 25 C0 24.34 0 23.68 0 23 C1.32 23 2.64 23 4 23 C4 15.74 4 8.48 4 1 C2.68 0.67 1.36 0.34 0 0 Z " fill="#2C2F37" transform="translate(120,110)"/>
<path d="M0 0 C0.33 0 0.66 0 1 0 C1 5.61 1 11.22 1 17 C-5.6 20.63 -12.2 24.26 -19 28 C-19 27.01 -19 26.02 -19 25 C-17.47119141 23.74145508 -17.47119141 23.74145508 -15.3515625 22.51953125 C-14.59359375 22.07802734 -13.835625 21.63652344 -13.0546875 21.18164062 C-12.25289062 20.72982422 -11.45109375 20.27800781 -10.625 19.8125 C-9.43390625 19.11737305 -9.43390625 19.11737305 -8.21875 18.40820312 C-2.29580495 15 -2.29580495 15 0 15 C0 10.05 0 5.1 0 0 Z " fill="#FE362D" transform="translate(181,68)"/>
<path d="M0 0 C7.50024635 3.60078199 15.11792474 7.30552598 22 12 C22 12.66 22 13.32 22 14 C16.92365174 12.2010497 12.36286389 9.50973545 7.6875 6.875 C6.85154297 6.40707031 6.01558594 5.93914062 5.15429688 5.45703125 C3.10133767 4.3073741 1.04997798 3.15496198 -1 2 C-0.67 1.34 -0.34 0.68 0 0 Z " fill="#FE1F15" transform="translate(126,84)"/>
<path d="M0 0 C0.33 0.66 0.66 1.32 1 2 C-0.8253125 2.0928125 -0.8253125 2.0928125 -2.6875 2.1875 C-7.15849852 2.71163126 -9.13301658 4.50586395 -12 8 C-12.66 7.67 -13.32 7.34 -14 7 C-10.07546495 1.4765803 -6.79267819 -0.38815304 0 0 Z " fill="#1D2127" transform="translate(162,109)"/>
<path d="M0 0 C0.66 0.66 1.32 1.32 2 2 C-3.94 5.465 -3.94 5.465 -10 9 C-10.33 8.01 -10.66 7.02 -11 6 C-7.37 4.02 -3.74 2.04 0 0 Z " fill="#FE2C21" transform="translate(174,70)"/>
<path d="M0 0 C0.99 0.66 1.98 1.32 3 2 C2.3125 3.9375 2.3125 3.9375 1 6 C-1.625 6.75 -1.625 6.75 -4 7 C-2.92598892 4.08482708 -2.22189824 2.22189824 0 0 Z " fill="#020B13" transform="translate(223,127)"/>
<path d="M0 0 C0.66 0 1.32 0 2 0 C2 0.66 2 1.32 2 2 C3.36125 2.37125 3.36125 2.37125 4.75 2.75 C8.10351489 4.03981342 9.67708236 5.31971042 12 8 C7.24518354 7.42365861 4.02951788 5.44931479 0 3 C0 2.01 0 1.02 0 0 Z " fill="#FE2318" transform="translate(139,75)"/>
<path d="M0 0 C-1 3 -1 3 -3.28515625 4.38671875 C-4.20167969 4.81597656 -5.11820313 5.24523437 -6.0625 5.6875 C-6.98160156 6.12449219 -7.90070313 6.56148438 -8.84765625 7.01171875 C-9.55792969 7.33785156 -10.26820313 7.66398437 -11 8 C-11 7.01 -11 6.02 -11 5 C-9.54462432 4.16151196 -8.08559627 3.32936066 -6.625 2.5 C-5.81289062 2.0359375 -5.00078125 1.571875 -4.1640625 1.09375 C-2 0 -2 0 0 0 Z " fill="#FE2D23" transform="translate(195,59)"/>
<path d="M0 0 C0 0.66 0 1.32 0 2 C-5.445 4.475 -5.445 4.475 -11 7 C-9.88809524 3.66428571 -9.53679327 3.41582921 -6.625 1.8125 C-6.01914063 1.46832031 -5.41328125 1.12414063 -4.7890625 0.76953125 C-3 0 -3 0 0 0 Z " fill="#FE1F16" transform="translate(182,35)"/>
<path d="M0 0 C0.66 0.33 1.32 0.66 2 1 C0.57140593 2.03325986 -0.86822383 3.05127634 -2.3125 4.0625 C-3.51326172 4.91521484 -3.51326172 4.91521484 -4.73828125 5.78515625 C-5.48464844 6.18605469 -6.23101562 6.58695313 -7 7 C-7.99 6.67 -8.98 6.34 -10 6 C-8.3811004 4.96951963 -6.75467511 3.95085322 -5.125 2.9375 C-4.22007812 2.36902344 -3.31515625 1.80054687 -2.3828125 1.21484375 C-1.20332031 0.61349609 -1.20332031 0.61349609 0 0 Z " fill="#FE1B10" transform="translate(137,27)"/>
<path d="M0 0 C0.33 0.99 0.66 1.98 1 3 C-2.96 4.98 -2.96 4.98 -7 7 C-7 6.01 -7 5.02 -7 4 C-4.69 2.68 -2.38 1.36 0 0 Z " fill="#FE2E24" transform="translate(163,60)"/>
<path d="M0 0 C0.33 0.99 0.66 1.98 1 3 C-2.96 4.98 -2.96 4.98 -7 7 C-7 6.01 -7 5.02 -7 4 C-4.69 2.68 -2.38 1.36 0 0 Z " fill="#FE2A21" transform="translate(149,68)"/>
</svg>
